<svg width="24" height="24" viewBox="0 0 24 24" fill="none" xmlns="http://www.w3.org/2000/svg">
<path fill-rule="evenodd" clip-rule="evenodd" d="M7.548 22C16.6044 22 21.558 14.6891 21.558 8.34995C21.558 8.14184 21.558 7.9353 21.5436 7.72952C22.5072 7.0514 23.3388 6.20945 24 5.24606C23.1024 5.63423 22.1484 5.88878 21.1728 6.00102C22.2 5.40124 22.9692 4.45895 23.3376 3.34708C22.3704 3.90594 21.3132 4.30036 20.2104 4.51198C18.3456 2.58052 15.2268 2.48695 13.2432 4.30382C11.9652 5.47532 11.4216 7.222 11.8188 8.88805C7.86 8.69397 4.1712 6.87245 1.6704 3.8759C0.3636 6.06806 1.032 8.87142 3.1956 10.2791C2.412 10.2569 1.6452 10.0513 0.96 9.67953V9.74041C0.9612 12.0238 2.6136 13.9899 4.9104 14.4423C4.1856 14.6353 3.4248 14.6632 2.688 14.5241C3.3324 16.4789 5.1816 17.8179 7.2876 17.8565C5.544 19.1916 3.39 19.9166 1.1724 19.9143C0.7812 19.9131 0.39 19.8909 0 19.8453C2.2524 21.253 4.872 22 7.548 21.9965" fill="currentColor"/>
</svg>
