<svg width="24" height="24" viewBox="0 0 24 24" fill="none" xmlns="http://www.w3.org/2000/svg">
<path d="M23.4985 6.65992C23.2225 5.61292 22.4092 4.78833 21.3766 4.50849C19.505 4 12 4 12 4C12 4 4.49503 4 2.62336 4.50849C1.59077 4.78838 0.777523 5.61292 0.501503 6.65992C0 8.55768 0 12.5172 0 12.5172C0 12.5172 0 16.4767 0.501503 18.3744C0.777523 19.4214 1.59077 20.2117 2.62336 20.4915C4.49503 21 12 21 12 21C12 21 19.505 21 21.3766 20.4915C22.4092 20.2117 23.2225 19.4214 23.4985 18.3744C24 16.4767 24 12.5172 24 12.5172C24 12.5172 24 8.55768 23.4985 6.65992V6.65992ZM9.54544 16.1121V8.92225L15.8181 12.5173L9.54544 16.1121V16.1121Z" fill="currentColor"/>
</svg>
